<svg width="662" height="341" viewBox="0 0 662 341" fill="none" xmlns="http://www.w3.org/2000/svg">
<rect width="662" height="341" fill="#E5E5E5"/>
<rect width="662" height="341" fill="white"/>
<ellipse cx="209.5" cy="117.5" rx="24.5" ry="23.5" fill="#C4C4C4"/>
<ellipse cx="465.5" cy="170.5" rx="24.5" ry="23.5" fill="#C4C4C4"/>
<ellipse cx="350.5" cy="226.5" rx="24.5" ry="23.5" fill="#C4C4C4"/>
<ellipse cx="350.5" cy="117.5" rx="24.5" ry="23.5" fill="#C4C4C4"/>
<ellipse cx="209.5" cy="226.5" rx="24.5" ry="23.5" fill="#C4C4C4"/>
<line x1="234" y1="115.5" x2="326" y2="115.5" stroke="black" stroke-width="3"/>
<line x1="234" y1="224.5" x2="326" y2="224.5" stroke="black" stroke-width="3"/>
<line x1="210.5" y1="141" x2="210.5" y2="203" stroke="black" stroke-width="3"/>
<line x1="351.5" y1="141" x2="351.5" y2="203" stroke="black" stroke-width="3"/>
<line x1="226.107" y1="209.794" x2="330.107" y2="132.794" stroke="black" stroke-width="3"/>
<line x1="375.654" y1="124.65" x2="441.654" y2="156.65" stroke="black" stroke-width="3"/>
<line x1="374.195" y1="224.735" x2="440.195" y2="182.735" stroke="black" stroke-width="3"/>
<path d="M210.407 122H208.772V111.163L205.494 112.367V110.891L210.152 109.142H210.407V122Z" fill="black"/>
<path d="M354.448 122H346.063V120.831L350.493 115.909C351.149 115.165 351.601 114.562 351.847 114.099C352.099 113.63 352.225 113.146 352.225 112.648C352.225 111.98 352.022 111.433 351.618 111.005C351.214 110.577 350.675 110.363 350.001 110.363C349.192 110.363 348.562 110.595 348.111 111.058C347.666 111.515 347.443 112.153 347.443 112.974H345.817C345.817 111.796 346.195 110.844 346.951 110.117C347.713 109.391 348.729 109.027 350.001 109.027C351.19 109.027 352.131 109.341 352.822 109.968C353.514 110.589 353.859 111.418 353.859 112.455C353.859 113.715 353.057 115.215 351.451 116.955L348.023 120.673H354.448V122Z" fill="black"/>
<path d="M207.428 225.811H208.649C209.417 225.799 210.021 225.597 210.46 225.204C210.899 224.812 211.119 224.281 211.119 223.613C211.119 222.113 210.372 221.363 208.878 221.363C208.175 221.363 207.612 221.565 207.19 221.97C206.774 222.368 206.566 222.898 206.566 223.561H204.94C204.94 222.547 205.31 221.706 206.048 221.038C206.792 220.364 207.735 220.027 208.878 220.027C210.085 220.027 211.031 220.347 211.717 220.985C212.402 221.624 212.745 222.512 212.745 223.648C212.745 224.205 212.563 224.744 212.2 225.266C211.843 225.787 211.354 226.177 210.732 226.435C211.436 226.657 211.978 227.026 212.358 227.542C212.745 228.058 212.938 228.688 212.938 229.432C212.938 230.58 212.563 231.491 211.813 232.165C211.063 232.839 210.088 233.176 208.887 233.176C207.686 233.176 206.707 232.851 205.951 232.2C205.201 231.55 204.826 230.691 204.826 229.625H206.461C206.461 230.299 206.681 230.838 207.12 231.242C207.56 231.646 208.148 231.849 208.887 231.849C209.672 231.849 210.272 231.644 210.688 231.233C211.104 230.823 211.312 230.234 211.312 229.467C211.312 228.723 211.084 228.151 210.627 227.753C210.17 227.354 209.511 227.149 208.649 227.138H207.428V225.811Z" fill="black"/>
<path d="M352.928 228.702H354.703V230.029H352.928V233H351.293V230.029H345.466V229.071L351.196 220.203H352.928V228.702ZM347.312 228.702H351.293V222.427L351.1 222.778L347.312 228.702Z" fill="black"/>
<path d="M461.811 170.584L462.461 164.203H469.018V165.706H463.841L463.454 169.195C464.081 168.826 464.793 168.642 465.59 168.642C466.756 168.642 467.682 169.028 468.367 169.802C469.053 170.569 469.396 171.609 469.396 172.922C469.396 174.24 469.038 175.28 468.323 176.042C467.614 176.798 466.621 177.176 465.344 177.176C464.213 177.176 463.29 176.862 462.575 176.235C461.86 175.608 461.453 174.741 461.354 173.634H462.892C462.991 174.366 463.252 174.92 463.674 175.295C464.096 175.664 464.652 175.849 465.344 175.849C466.1 175.849 466.691 175.591 467.119 175.075C467.553 174.56 467.77 173.848 467.77 172.939C467.77 172.084 467.535 171.398 467.066 170.883C466.604 170.361 465.985 170.101 465.212 170.101C464.503 170.101 463.946 170.256 463.542 170.566L463.111 170.918L461.811 170.584Z" fill="black"/>
<path d="M233.75 49L229.862 39.046V49H228.35V37.21H230.798L234.614 47.164V37.21H236.126V49H233.75ZM241.725 40C242.793 40 243.585 40.288 244.101 40.864C244.629 41.428 244.893 42.232 244.893 43.276V45.94C244.893 46.984 244.629 47.794 244.101 48.37C243.585 48.934 242.793 49.216 241.725 49.216C240.657 49.216 239.859 48.934 239.331 48.37C238.815 47.794 238.557 46.984 238.557 45.94V43.276C238.557 42.232 238.815 41.428 239.331 40.864C239.859 40.288 240.657 40 241.725 40ZM241.725 41.278C241.209 41.278 240.807 41.44 240.519 41.764C240.231 42.088 240.087 42.55 240.087 43.15V46.066C240.087 46.666 240.231 47.128 240.519 47.452C240.807 47.776 241.209 47.938 241.725 47.938C242.241 47.938 242.643 47.776 242.931 47.452C243.219 47.128 243.363 46.666 243.363 46.066V43.132C243.363 42.532 243.219 42.076 242.931 41.764C242.643 41.44 242.241 41.278 241.725 41.278ZM253.275 49H251.817V47.578C251.097 48.67 250.275 49.216 249.351 49.216C248.607 49.216 248.037 48.964 247.641 48.46C247.245 47.944 247.047 47.194 247.047 46.21V43.006C247.047 42.058 247.263 41.32 247.695 40.792C248.139 40.264 248.769 40 249.585 40C249.933 40 250.299 40.09 250.683 40.27C251.067 40.438 251.421 40.648 251.745 40.9V36.706H253.275V49ZM249.927 41.368C249.495 41.368 249.159 41.524 248.919 41.836C248.691 42.136 248.577 42.598 248.577 43.222V46.012C248.577 47.236 248.955 47.848 249.711 47.848C250.071 47.848 250.425 47.71 250.773 47.434C251.133 47.146 251.457 46.744 251.745 46.228V42.268C251.493 42.004 251.193 41.788 250.845 41.62C250.509 41.452 250.203 41.368 249.927 41.368ZM258.667 40C259.675 40 260.443 40.276 260.971 40.828C261.499 41.38 261.763 42.178 261.763 43.222V45.076H257.137V46.138C257.137 46.75 257.281 47.194 257.569 47.47C257.869 47.734 258.337 47.866 258.973 47.866C259.597 47.866 260.377 47.77 261.313 47.578L261.349 48.91C260.233 49.114 259.435 49.216 258.955 49.216C257.767 49.216 256.909 48.958 256.381 48.442C255.865 47.926 255.607 47.128 255.607 46.048V43.222C255.607 42.178 255.859 41.38 256.363 40.828C256.879 40.276 257.647 40 258.667 40ZM258.667 41.278C258.199 41.278 257.827 41.428 257.551 41.728C257.275 42.016 257.137 42.436 257.137 42.988V43.852H260.233V43.042C260.233 42.466 260.089 42.028 259.801 41.728C259.525 41.428 259.147 41.278 258.667 41.278ZM266.358 40C266.862 40 267.468 40.072 268.176 40.216L268.14 41.512C267.516 41.368 266.946 41.296 266.43 41.296C265.35 41.296 264.81 41.644 264.81 42.34V42.502C264.81 42.718 264.864 42.892 264.972 43.024C265.092 43.156 265.302 43.294 265.602 43.438L267.294 44.23C268.314 44.71 268.824 45.412 268.824 46.336V46.732C268.812 47.56 268.56 48.184 268.068 48.604C267.588 49.012 266.826 49.216 265.782 49.216C265.242 49.216 264.468 49.09 263.46 48.838L263.532 47.47C264.432 47.734 265.17 47.866 265.746 47.866C266.334 47.866 266.742 47.788 266.97 47.632C267.198 47.464 267.312 47.194 267.312 46.822V46.642C267.312 46.354 267.252 46.126 267.132 45.958C267.024 45.79 266.838 45.646 266.574 45.526L264.828 44.752C264.3 44.512 263.91 44.224 263.658 43.888C263.418 43.552 263.298 43.162 263.298 42.718V42.466C263.322 41.65 263.574 41.038 264.054 40.63C264.546 40.21 265.314 40 266.358 40ZM276.934 40C278.002 40 278.794 40.288 279.31 40.864C279.838 41.428 280.102 42.232 280.102 43.276V45.94C280.102 46.984 279.838 47.794 279.31 48.37C278.794 48.934 278.002 49.216 276.934 49.216C275.866 49.216 275.068 48.934 274.54 48.37C274.024 47.794 273.766 46.984 273.766 45.94V43.276C273.766 42.232 274.024 41.428 274.54 40.864C275.068 40.288 275.866 40 276.934 40ZM276.934 41.278C276.418 41.278 276.016 41.44 275.728 41.764C275.44 42.088 275.296 42.55 275.296 43.15V46.066C275.296 46.666 275.44 47.128 275.728 47.452C276.016 47.776 276.418 47.938 276.934 47.938C277.45 47.938 277.852 47.776 278.14 47.452C278.428 47.128 278.572 46.666 278.572 46.066V43.132C278.572 42.532 278.428 42.076 278.14 41.764C277.852 41.44 277.45 41.278 276.934 41.278ZM286.27 40C286.438 40 286.57 40.012 286.666 40.036V41.764C286.486 41.728 286.252 41.71 285.964 41.71C285.124 41.71 284.458 42.13 283.966 42.97V49H282.436V40.216H283.876V41.53C284.2 41.038 284.56 40.66 284.956 40.396C285.364 40.132 285.802 40 286.27 40ZM299.498 37.21L295.952 49H293.936L290.498 37.21H292.118L294.944 47.524L297.878 37.21H299.498ZM303.333 40C304.341 40 305.109 40.276 305.637 40.828C306.165 41.38 306.429 42.178 306.429 43.222V45.076H301.803V46.138C301.803 46.75 301.947 47.194 302.235 47.47C302.535 47.734 303.003 47.866 303.639 47.866C304.263 47.866 305.043 47.77 305.979 47.578L306.015 48.91C304.899 49.114 304.101 49.216 303.621 49.216C302.433 49.216 301.575 48.958 301.047 48.442C300.531 47.926 300.273 47.128 300.273 46.048V43.222C300.273 42.178 300.525 41.38 301.029 40.828C301.545 40.276 302.313 40 303.333 40ZM303.333 41.278C302.865 41.278 302.493 41.428 302.217 41.728C301.941 42.016 301.803 42.436 301.803 42.988V43.852H304.899V43.042C304.899 42.466 304.755 42.028 304.467 41.728C304.191 41.428 303.813 41.278 303.333 41.278ZM312.338 40C312.506 40 312.638 40.012 312.734 40.036V41.764C312.554 41.728 312.32 41.71 312.032 41.71C311.192 41.71 310.526 42.13 310.034 42.97V49H308.504V40.216H309.944V41.53C310.268 41.038 310.628 40.66 311.024 40.396C311.432 40.132 311.87 40 312.338 40ZM316.58 40.216H318.92V41.476H316.58V46.624C316.58 47.08 316.67 47.41 316.85 47.614C317.042 47.806 317.336 47.902 317.732 47.902C318.236 47.902 318.728 47.842 319.208 47.722L319.244 49C318.716 49.144 318.236 49.216 317.804 49.216C316.844 49.216 316.142 49.006 315.698 48.586C315.266 48.154 315.05 47.458 315.05 46.498V41.476H313.79V40.216H315.05L315.338 37.876H316.58V40.216ZM322.392 40.216V49H320.862V40.216H322.392ZM321.618 36.67C321.942 36.67 322.188 36.742 322.356 36.886C322.536 37.03 322.626 37.234 322.626 37.498V38.02C322.626 38.284 322.536 38.488 322.356 38.632C322.188 38.764 321.942 38.83 321.618 38.83C321.306 38.83 321.06 38.764 320.88 38.632C320.712 38.488 320.628 38.284 320.628 38.02V37.498C320.628 37.234 320.712 37.03 320.88 36.886C321.06 36.742 321.306 36.67 321.618 36.67ZM327.983 40C328.523 40 329.135 40.078 329.819 40.234L329.783 41.584C329.087 41.428 328.487 41.35 327.983 41.35C327.419 41.35 326.987 41.506 326.687 41.818C326.399 42.13 326.255 42.574 326.255 43.15V46.048C326.255 46.648 326.405 47.104 326.705 47.416C327.017 47.716 327.443 47.866 327.983 47.866C328.319 47.866 328.613 47.848 328.865 47.812C329.117 47.776 329.423 47.716 329.783 47.632L329.819 48.982C329.087 49.138 328.469 49.216 327.965 49.216C325.805 49.216 324.725 48.124 324.725 45.94V43.276C324.725 41.092 325.811 40 327.983 40ZM334.798 40C335.806 40 336.574 40.276 337.102 40.828C337.63 41.38 337.894 42.178 337.894 43.222V45.076H333.268V46.138C333.268 46.75 333.412 47.194 333.7 47.47C334 47.734 334.468 47.866 335.104 47.866C335.728 47.866 336.508 47.77 337.444 47.578L337.48 48.91C336.364 49.114 335.566 49.216 335.086 49.216C333.898 49.216 333.04 48.958 332.512 48.442C331.996 47.926 331.738 47.128 331.738 46.048V43.222C331.738 42.178 331.99 41.38 332.494 40.828C333.01 40.276 333.778 40 334.798 40ZM334.798 41.278C334.33 41.278 333.958 41.428 333.682 41.728C333.406 42.016 333.268 42.436 333.268 42.988V43.852H336.364V43.042C336.364 42.466 336.22 42.028 335.932 41.728C335.656 41.428 335.278 41.278 334.798 41.278ZM342.489 40C342.993 40 343.599 40.072 344.307 40.216L344.271 41.512C343.647 41.368 343.077 41.296 342.561 41.296C341.481 41.296 340.941 41.644 340.941 42.34V42.502C340.941 42.718 340.995 42.892 341.103 43.024C341.223 43.156 341.433 43.294 341.733 43.438L343.425 44.23C344.445 44.71 344.955 45.412 344.955 46.336V46.732C344.943 47.56 344.691 48.184 344.199 48.604C343.719 49.012 342.957 49.216 341.913 49.216C341.373 49.216 340.599 49.09 339.591 48.838L339.663 47.47C340.563 47.734 341.301 47.866 341.877 47.866C342.465 47.866 342.873 47.788 343.101 47.632C343.329 47.464 343.443 47.194 343.443 46.822V46.642C343.443 46.354 343.383 46.126 343.263 45.958C343.155 45.79 342.969 45.646 342.705 45.526L340.959 44.752C340.431 44.512 340.041 44.224 339.789 43.888C339.549 43.552 339.429 43.162 339.429 42.718V42.466C339.453 41.65 339.705 41.038 340.185 40.63C340.677 40.21 341.445 40 342.489 40Z" fill="#0400DE"/>
<path d="M226 87.0303C226.017 87.5823 226.478 88.0163 227.03 87.9995L236.026 87.7269C236.578 87.7102 237.012 87.2491 236.995 86.6971C236.979 86.1451 236.518 85.7111 235.966 85.7279L227.969 85.9702L227.727 77.9738C227.71 77.4218 227.249 76.9879 226.697 77.0046C226.145 77.0213 225.711 77.4824 225.728 78.0344L226 87.0303ZM258.272 52.3146L226.272 86.3146L227.728 87.6854L259.728 53.6854L258.272 52.3146Z" fill="#0400DE"/>
<path d="M330.706 87.9558C331.234 88.1182 331.793 87.8219 331.956 87.2941L334.603 78.6921C334.765 78.1642 334.469 77.6046 333.941 77.4422C333.413 77.2798 332.853 77.576 332.691 78.1039L330.338 85.7501L322.692 83.3974C322.164 83.235 321.605 83.5313 321.442 84.0591C321.28 84.587 321.576 85.1466 322.104 85.309L330.706 87.9558ZM312.116 53.4679L330.116 87.4679L331.884 86.5321L313.884 52.5321L312.116 53.4679Z" fill="#0400DE"/>
<path d="M456.56 253.21V254.596H451.88V258.322H456.2V259.69H451.88V263.614H456.56V265H450.35V253.21H456.56ZM464.956 265H463.498V263.578C462.778 264.67 461.956 265.216 461.032 265.216C460.288 265.216 459.718 264.964 459.322 264.46C458.926 263.944 458.728 263.194 458.728 262.21V259.006C458.728 258.058 458.944 257.32 459.376 256.792C459.82 256.264 460.45 256 461.266 256C461.614 256 461.98 256.09 462.364 256.27C462.748 256.438 463.102 256.648 463.426 256.9V252.706H464.956V265ZM461.608 257.368C461.176 257.368 460.84 257.524 460.6 257.836C460.372 258.136 460.258 258.598 460.258 259.222V262.012C460.258 263.236 460.636 263.848 461.392 263.848C461.752 263.848 462.106 263.71 462.454 263.434C462.814 263.146 463.138 262.744 463.426 262.228V258.268C463.174 258.004 462.874 257.788 462.526 257.62C462.19 257.452 461.884 257.368 461.608 257.368ZM470.349 256C470.877 256 471.357 256.078 471.789 256.234L474.597 256.198V257.548L473.121 257.512C473.325 257.944 473.427 258.394 473.427 258.862V259.258C473.427 260.134 473.157 260.842 472.617 261.382C472.077 261.91 471.321 262.174 470.349 262.174C469.725 262.174 469.215 262.114 468.819 261.994C468.555 262.21 468.423 262.456 468.423 262.732V262.84C468.423 263.032 468.483 263.176 468.603 263.272C468.723 263.356 468.957 263.41 469.305 263.434L471.987 263.632C472.539 263.68 472.983 263.89 473.319 264.262C473.667 264.622 473.841 265.078 473.841 265.63V266.296C473.841 266.812 473.739 267.232 473.535 267.556C473.331 267.88 472.953 268.126 472.401 268.294C471.861 268.462 471.081 268.546 470.061 268.546C469.677 268.546 469.221 268.504 468.693 268.42C468.177 268.336 467.685 268.228 467.217 268.096L467.271 266.674C468.387 267.046 469.335 267.232 470.115 267.232C470.763 267.232 471.243 267.19 471.555 267.106C471.879 267.034 472.089 266.92 472.185 266.764C472.293 266.608 472.347 266.374 472.347 266.062V265.918C472.347 265.642 472.269 265.426 472.113 265.27C471.969 265.114 471.759 265.03 471.483 265.018L468.783 264.838C468.207 264.802 467.769 264.64 467.469 264.352C467.169 264.064 467.019 263.674 467.019 263.182V262.822C467.019 262.558 467.085 262.3 467.217 262.048C467.361 261.796 467.565 261.574 467.829 261.382C467.625 261.154 467.475 260.866 467.379 260.518C467.295 260.158 467.253 259.72 467.253 259.204V258.808C467.253 257.956 467.517 257.278 468.045 256.774C468.573 256.258 469.341 256 470.349 256ZM470.349 257.278C469.845 257.278 469.455 257.41 469.179 257.674C468.915 257.926 468.783 258.292 468.783 258.772V259.366C468.783 259.81 468.819 260.14 468.891 260.356C468.975 260.56 469.119 260.704 469.323 260.788C469.527 260.86 469.833 260.896 470.241 260.896C470.793 260.896 471.207 260.764 471.483 260.5C471.759 260.236 471.897 259.858 471.897 259.366V258.826C471.897 258.322 471.825 257.884 471.681 257.512C471.537 257.452 471.339 257.398 471.087 257.35C470.847 257.302 470.601 257.278 470.349 257.278ZM478.822 256C479.83 256 480.598 256.276 481.126 256.828C481.654 257.38 481.918 258.178 481.918 259.222V261.076H477.292V262.138C477.292 262.75 477.436 263.194 477.724 263.47C478.024 263.734 478.492 263.866 479.128 263.866C479.752 263.866 480.532 263.77 481.468 263.578L481.504 264.91C480.388 265.114 479.59 265.216 479.11 265.216C477.922 265.216 477.064 264.958 476.536 264.442C476.02 263.926 475.762 263.128 475.762 262.048V259.222C475.762 258.178 476.014 257.38 476.518 256.828C477.034 256.276 477.802 256 478.822 256ZM478.822 257.278C478.354 257.278 477.982 257.428 477.706 257.728C477.43 258.016 477.292 258.436 477.292 258.988V259.852H480.388V259.042C480.388 258.466 480.244 258.028 479.956 257.728C479.68 257.428 479.302 257.278 478.822 257.278Z" fill="#FF0202"/>
<path d="M419.062 210.002C418.511 209.967 418.036 210.386 418.002 210.938L417.441 219.92C417.406 220.471 417.825 220.946 418.376 220.981C418.927 221.015 419.402 220.596 419.437 220.045L419.936 212.06L427.92 212.559C428.471 212.594 428.946 212.175 428.981 211.624C429.015 211.073 428.596 210.598 428.045 210.563L419.062 210.002ZM449.75 244.338L419.75 210.338L418.25 211.662L448.25 245.662L449.75 244.338Z" fill="#FF0202"/>
</svg>
